<svg width="208" height="179" viewBox="0 0 208 179" fill="none" xmlns="http://www.w3.org/2000/svg">
<path d="M95.8616 40.5C106.07 40.8646 114 41.0469 119.651 41.0469C125.302 41.0469 133.231 40.8646 143.44 40.5C143.622 41.2292 143.713 41.7305 143.713 42.0039C143.713 42.3229 143.622 42.8926 143.44 43.7129C141.343 43.8952 139.634 44.1003 138.313 44.3281C137.037 44.5104 135.442 44.8294 133.528 45.2852C131.659 45.7409 130.224 46.4017 129.221 47.2676C128.218 48.0879 127.694 49.0905 127.649 50.2754C127.056 65.7702 126.76 80.194 126.76 93.5469C126.76 100.428 127.011 108.852 127.512 130.818H135.051C141.75 130.363 148.431 129.383 153.717 127.879C159.003 126.375 163.401 124.461 166.91 122.137C170.465 119.767 173.382 117.329 175.66 114.822C177.985 112.27 179.99 109.422 181.676 106.277C182.861 106.733 183.636 107.348 184 108.123C182.132 111.587 180.673 114.389 179.625 116.531C178.623 118.673 177.506 121.499 176.276 125.008C175.091 128.471 174.316 131.798 173.951 134.988H127.512C115.162 134.988 104.566 135.125 95.7249 135.398C95.5426 134.851 95.4514 134.396 95.4514 134.031C95.4514 133.712 95.5426 133.097 95.7249 132.186C97.8212 132.003 99.5074 131.821 100.783 131.639C102.105 131.411 103.7 131.069 105.569 130.613C107.483 130.158 108.941 129.519 109.944 128.699C110.946 127.833 111.47 126.808 111.516 125.623C112.063 111.359 112.336 102.98 112.336 88.4883C112.336 73.7227 112.108 60.985 111.653 50.2754C111.607 49.0905 111.083 48.0879 110.08 47.2676C109.078 46.4017 107.619 45.7409 105.705 45.2852C103.837 44.8294 102.242 44.5104 100.92 44.3281C99.6441 44.1003 97.9579 43.8952 95.8616 43.7129C95.6793 42.8926 95.5881 42.3229 95.5881 42.0039C95.5881 41.5482 95.6793 41.0469 95.8616 40.5Z" fill="#BB9684"/>
<path d="M90.5 33C88.6445 24.0645 87.8896 17.5293 82.9092 12.5976C77.9775 7.66602 72.0449 5.2002 65.1113 5.2002C58.3242 5.2002 53.0508 6.81153 49.291 10.0342C45.5801 13.2568 43.7246 17.5537 43.7246 22.9248C43.7246 25.9033 43.9932 28.3691 44.5303 30.3223C45.0674 32.2754 46.166 34.1797 47.8262 36.0351C49.4863 37.8418 51.9033 39.4531 55.0771 40.8691C58.251 42.2363 62.4014 43.5547 67.5283 44.8242C70.3115 45.5078 72.7285 46.1426 74.7793 46.7285C76.8789 47.3144 79.1738 48.1201 81.6641 49.1455C84.2031 50.1709 86.376 51.2695 88.1826 52.4414C90.0381 53.6133 91.8691 55.0781 93.6758 56.8359C95.5312 58.5449 97.0205 60.4492 98.1435 62.5488C99.3154 64.6484 100.243 67.1387 100.927 70.0195C101.659 72.8516 102.025 75.9521 102.025 79.3213C102.025 83.8135 101.195 87.9639 99.5351 91.7725C97.875 95.5322 95.7021 98.706 93.0166 101.294C90.331 103.882 87.2305 106.079 83.7148 107.886C80.1992 109.692 76.6348 111.011 73.0215 111.841C69.4082 112.671 65.8193 113.086 62.2549 113.086C51.415 113.086 39.8672 110.278 27.6113 104.663C27.8555 99.39 27.9775 96.1426 27.9775 94.9219C27.9775 86.9629 27.3184 79.0283 26 71.1182C26.5371 70.7764 27.0742 70.6055 27.6113 70.6055C28.2949 70.6055 28.9053 70.7764 29.4424 71.1182C30.4678 77.417 32.1523 82.9834 34.4961 87.8174C36.8887 92.6514 39.623 96.4844 42.6992 99.316C45.7754 102.1 48.9492 104.199 52.2207 105.615C55.541 106.982 58.8857 107.666 62.2549 107.666C69.9209 107.666 75.8047 105.688 79.9062 101.733C84.0566 97.7295 86.1318 92.456 86.1318 85.9131C86.1318 79.3213 84.5937 74.3652 81.5176 71.0449C78.4902 67.6758 72.6797 64.9414 64.0859 62.8418C53.3437 60.1562 44.9453 56.2012 38.8906 50.9766C32.8848 45.7031 29.8818 38.7451 29.8818 30.1025C29.8818 25.5615 30.6143 21.5088 32.0791 17.9443C33.5928 14.331 35.5215 11.4502 37.8652 9.30181C40.2578 7.10449 43.041 5.29785 46.2148 3.88184C49.3887 2.41699 52.5137 1.41602 55.5898 0.878908C58.7148 0.292968 61.8887 0 65.1113 0C74.7793 0 83.0508 2.00782 93.5 6.5C93.5 9.5 93.5 12.875 93.5 16C93.5 23.3242 93.5576 28.5 93.5 33C92.8652 33.2442 92.7705 33.3662 92.331 33.3662C91.8427 33.3662 91.2324 33.2442 90.5 33Z" fill="#5D0B0D"/>
<circle cx="103.5" cy="166.5" r="12.5" fill="#D9D9D9"/>
<path d="M82.5 169C24 169 -6.5 118.5 2.99994 56" stroke="black"/>
<path d="M126 169C184.5 169 215 118.5 205.5 56" stroke="black"/>
<path d="M98.5 172.125V170.875H106V172.125H98.5ZM102.031 169.094L98.5 165.562L99.8125 164.219L103.375 167.75L102.031 169.094ZM106 165.125L102.469 161.562L103.812 160.25L107.344 163.781L106 165.125ZM108.875 171.5L100.719 163.344L101.594 162.469L109.75 170.625L108.875 171.5Z" fill="#5D0B0D"/>
</svg>
