<svg width="121" height="121" viewBox="0 0 121 121" fill="none" xmlns="http://www.w3.org/2000/svg">
<g filter="url(#filter0_d_30_11)">
<circle cx="60.5" cy="56.5" r="54.5" fill="#D3BFB1"/>
</g>
<path d="M43.081 44.2352C43.081 41.9113 43.5387 39.6101 44.428 37.4631C45.3173 35.3161 46.6208 33.3653 48.2641 31.722C49.9073 30.0788 51.8582 28.7753 54.0052 27.886C56.1522 26.9966 58.4533 26.5389 60.7773 26.5389C63.1012 26.5389 65.4023 26.9966 67.5493 27.886C69.6964 28.7753 71.6472 30.0788 73.2904 31.722C74.9337 33.3653 76.2372 35.3161 77.1265 37.4631C78.0158 39.6101 78.4736 41.9113 78.4736 44.2352C78.4736 46.5591 78.0158 48.8603 77.1265 51.0073C76.2372 53.1543 74.9337 55.1051 73.2904 56.7484C71.6472 58.3916 69.6964 59.6951 67.5493 60.5845C65.4023 61.4738 63.1012 61.9315 60.7773 61.9315C58.4533 61.9315 56.1522 61.4738 54.0052 60.5845C51.8582 59.6951 49.9073 58.3916 48.2641 56.7484C46.6208 55.1051 45.3173 53.1543 44.428 51.0073C43.5387 48.8603 43.081 46.5591 43.081 44.2352ZM65.8333 71.5855C78.7738 69.2154 88.5857 57.8708 88.5857 44.2352C88.5857 28.8773 76.1351 16.4267 60.7773 16.4267C45.4194 16.4267 32.9688 28.8773 32.9688 44.2352C32.9688 57.8708 42.7807 69.2154 55.7212 71.5855V77.0998H50.6651C47.8684 77.0998 45.609 79.3592 45.609 82.1559C45.609 84.9525 47.8684 87.212 50.6651 87.212H55.7212V92.268C55.7212 95.0647 57.9806 97.3241 60.7773 97.3241C63.5739 97.3241 65.8333 95.0647 65.8333 92.268V87.212H70.8894C73.6861 87.212 75.9455 84.9525 75.9455 82.1559C75.9455 79.3592 73.6861 77.0998 70.8894 77.0998H65.8333V71.5855Z" fill="#5D0B0D"/>
<defs>
<filter id="filter0_d_30_11" x="0" y="0" width="121" height="121" filterUnits="userSpaceOnUse" color-interpolation-filters="sRGB">
<feFlood flood-opacity="0" result="BackgroundImageFix"/>
<feColorMatrix in="SourceAlpha" type="matrix" values="0 0 0 0 0 0 0 0 0 0 0 0 0 0 0 0 0 0 127 0" result="hardAlpha"/>
<feMorphology radius="2" operator="dilate" in="SourceAlpha" result="effect1_dropShadow_30_11"/>
<feOffset dy="4"/>
<feGaussianBlur stdDeviation="2"/>
<feComposite in2="hardAlpha" operator="out"/>
<feColorMatrix type="matrix" values="0 0 0 0 0 0 0 0 0 0 0 0 0 0 0 0 0 0 0.25 0"/>
<feBlend mode="normal" in2="BackgroundImageFix" result="effect1_dropShadow_30_11"/>
<feBlend mode="normal" in="SourceGraphic" in2="effect1_dropShadow_30_11" result="shape"/>
</filter>
</defs>
</svg>
