<svg width="62" height="62" viewBox="0 0 62 62" fill="none" xmlns="http://www.w3.org/2000/svg">
<circle cx="31" cy="31" r="31" fill="#4EAC36"/>
<path d="M45.1587 16.3445C41.5112 12.7352 36.6536 10.75 31.4913 10.75C20.8359 10.75 12.1654 19.3094 12.1654 29.8281C12.1654 33.1883 13.0533 36.4711 14.7422 39.3672L12 49.25L22.2462 46.5945C25.0667 48.1156 28.2442 48.9148 31.4826 48.9148H31.4913C42.1379 48.9148 51 40.3555 51 29.8367C51 24.7406 48.8063 19.9539 45.1587 16.3445ZM31.4913 45.7008C28.6011 45.7008 25.7719 44.9359 23.3083 43.4922L22.725 43.1484L16.6487 44.7211L18.2679 38.8688L17.8848 38.2672C16.2743 35.7406 15.4299 32.8273 15.4299 29.8281C15.4299 21.0883 22.6379 13.9727 31.5 13.9727C35.7917 13.9727 39.8223 15.6227 42.8518 18.6219C45.8813 21.6211 47.7442 25.6 47.7355 29.8367C47.7355 38.5852 40.3446 45.7008 31.4913 45.7008ZM40.3011 33.8242C39.8223 33.5836 37.4458 32.432 37.0018 32.2773C36.5578 32.1141 36.2357 32.0367 35.9136 32.518C35.5915 32.9992 34.6688 34.0648 34.3815 34.3914C34.1029 34.7094 33.8156 34.7523 33.3368 34.5117C30.4989 33.1109 28.6359 32.0109 26.7643 28.8398C26.2681 27.9977 27.2605 28.0578 28.1833 26.2359C28.34 25.918 28.2616 25.643 28.1397 25.4023C28.0179 25.1617 27.0516 22.8156 26.6511 21.8617C26.2594 20.9336 25.8589 21.0625 25.5629 21.0453C25.2844 21.0281 24.9623 21.0281 24.6402 21.0281C24.3181 21.0281 23.7958 21.1484 23.3518 21.6211C22.9078 22.1023 21.6629 23.2539 21.6629 25.6C21.6629 27.9461 23.3953 30.2148 23.6304 30.5328C23.8741 30.8508 27.0342 35.6633 31.883 37.7344C34.9473 39.0406 36.1487 39.1523 37.6808 38.9289C38.6123 38.7914 40.5362 37.7773 40.9366 36.6602C41.3371 35.543 41.3371 34.5891 41.2152 34.3914C41.102 34.1766 40.7799 34.0562 40.3011 33.8242Z" fill="white"/>
</svg>
